<svg width="924" height="82" viewBox="0 0 924 82" fill="none" xmlns="http://www.w3.org/2000/svg">
<g clip-path="url(#clip0)">
<path d="M924 0H0V82H924V0Z" fill="white"/>
<path fill-rule="evenodd" clip-rule="evenodd" d="M-460.756 -448.825C-474.023 -547.977 -743.973 -697.385 -571.123 -745.93C-394.578 -795.513 -67.6702 -673.37 193.257 -632.504C358.174 -606.674 516.826 -590.655 674.688 -550.811C844.84 -507.866 1013.54 -461.276 1134.02 -395.062C1270.94 -319.808 1368.27 -236.772 1391.08 -157.085C1416.97 -66.669 1429.99 37.3864 1269.54 78.2929C1110.06 118.95 834.799 46.8343 615.141 40.7391C388.633 34.4537 195.36 94.9135 -32.7941 42.1547C-263.252 -11.1371 -416.646 -121.152 -500.381 -217.217C-575.395 -303.277 -449.716 -366.311 -460.756 -448.825Z" fill="#E2F7FA"/>
<path fill-rule="evenodd" clip-rule="evenodd" d="M-460.756 -448.825C-474.023 -547.977 -743.973 -697.385 -571.123 -745.93C-394.578 -795.513 -67.6702 -673.37 193.257 -632.504C358.174 -606.674 516.826 -590.655 674.688 -550.811C844.84 -507.866 1013.54 -461.276 1134.02 -395.062C1270.94 -319.808 1368.27 -236.772 1391.08 -157.085C1416.97 -66.669 1429.99 37.3864 1269.54 78.2929C1110.06 118.95 834.799 46.8343 615.141 40.7391C388.633 34.4537 195.36 94.9135 -32.7941 42.1547C-263.252 -11.1371 -416.646 -121.152 -500.381 -217.217C-575.395 -303.277 -449.716 -366.311 -460.756 -448.825Z" fill="url(#paint0_linear)"/>
</g>
<defs>
<linearGradient id="paint0_linear" x1="1089.54" y1="529.855" x2="-189.767" y2="-385.656" gradientUnits="userSpaceOnUse">
<stop offset="0.168522" stop-color="#0075C2"/>
<stop offset="0.51271" stop-color="#5DAAD9"/>
<stop offset="0.918668" stop-color="white"/>
</linearGradient>
<clipPath id="clip0">
<rect width="924" height="82" fill="white"/>
</clipPath>
</defs>
</svg>
