<svg width="925" height="520" viewBox="0 0 925 520" fill="none" xmlns="http://www.w3.org/2000/svg">
<g clip-path="url(#clip0)">
<path d="M924.444 0H0V520H924.444V0Z" fill="white"/>
<path fill-rule="evenodd" clip-rule="evenodd" d="M-468.614 -451.867C-481.881 -551.019 -751.831 -700.427 -578.981 -748.972C-402.436 -798.555 -75.5281 -676.412 185.399 -635.546C350.316 -609.716 508.968 -593.697 666.83 -553.853C836.982 -510.908 1005.68 -464.318 1126.16 -398.104C1263.08 -322.85 1360.41 -239.814 1383.23 -160.128C1409.11 -69.7111 1422.13 34.3443 1261.68 75.2507C1102.2 115.908 826.941 43.7922 607.283 37.697C380.775 31.4116 187.502 91.8714 -40.652 39.1125C-271.11 -14.1792 -424.504 -124.195 -508.239 -220.259C-583.253 -306.319 -457.574 -369.353 -468.614 -451.867Z" fill="#E2F7FA"/>
<path fill-rule="evenodd" clip-rule="evenodd" d="M-468.614 -451.867C-481.881 -551.019 -751.831 -700.427 -578.981 -748.972C-402.436 -798.555 -75.5281 -676.412 185.399 -635.546C350.316 -609.716 508.968 -593.697 666.83 -553.853C836.982 -510.908 1005.68 -464.318 1126.16 -398.104C1263.08 -322.85 1360.41 -239.814 1383.23 -160.128C1409.11 -69.7111 1422.13 34.3443 1261.68 75.2507C1102.2 115.908 826.941 43.7922 607.283 37.697C380.775 31.4116 187.502 91.8714 -40.652 39.1125C-271.11 -14.1792 -424.504 -124.195 -508.239 -220.259C-583.253 -306.319 -457.574 -369.353 -468.614 -451.867Z" fill="url(#paint0_linear)"/>
<path fill-rule="evenodd" clip-rule="evenodd" d="M1563.61 849.951C1580.7 942.967 1853.57 1076.46 1684.63 1126.79C1512.09 1178.19 1184 1071.89 924.41 1040.36C760.336 1020.44 602.849 1009.58 445.187 976.274C275.252 940.371 106.606 900.997 -15.1541 841.858C-153.539 774.644 -253.087 699.046 -278.837 624.615C-308.054 540.162 -325.096 442.521 -168.113 399.721C-12.0864 357.181 262.933 417.75 480.333 417.632C704.513 417.509 893.16 355.421 1120.83 399.018C1350.8 443.055 1506.86 542.564 1593.49 630.793C1671.1 709.833 1549.38 772.544 1563.61 849.951Z" fill="#E2F7FA"/>
<path fill-rule="evenodd" clip-rule="evenodd" d="M1563.61 849.951C1580.7 942.967 1853.57 1076.46 1684.63 1126.79C1512.09 1178.19 1184 1071.89 924.41 1040.36C760.336 1020.44 602.849 1009.58 445.187 976.274C275.252 940.371 106.606 900.997 -15.1541 841.858C-153.539 774.644 -253.087 699.046 -278.837 624.615C-308.054 540.162 -325.096 442.521 -168.113 399.721C-12.0864 357.181 262.933 417.75 480.333 417.632C704.513 417.509 893.16 355.421 1120.83 399.018C1350.8 443.055 1506.86 542.564 1593.49 630.793C1671.1 709.833 1549.38 772.544 1563.61 849.951Z" fill="url(#paint1_linear)"/>
</g>
<defs>
<linearGradient id="paint0_linear" x1="1081.68" y1="526.813" x2="-197.625" y2="-388.698" gradientUnits="userSpaceOnUse">
<stop offset="0.168522" stop-color="#0075C2"/>
<stop offset="0.51271" stop-color="#5DAAD9"/>
<stop offset="0.918668" stop-color="white"/>
</linearGradient>
<linearGradient id="paint1_linear" x1="-8.27371" y1="-30.3087" x2="1257.55" y2="848.97" gradientUnits="userSpaceOnUse">
<stop offset="0.168522" stop-color="#0075C2"/>
<stop offset="0.51271" stop-color="#5DAAD9"/>
<stop offset="1" stop-color="white"/>
</linearGradient>
<clipPath id="clip0">
<rect width="924.444" height="520" fill="white"/>
</clipPath>
</defs>
</svg>
