<svg width="925" height="520" viewBox="0 0 925 520" fill="none" xmlns="http://www.w3.org/2000/svg">
<g clip-path="url(#clip0)">
<path d="M924.444 0H0V520H924.444V0Z" fill="white"/>
<path fill-rule="evenodd" clip-rule="evenodd" d="M-468.614 -451.867C-481.881 -551.019 -751.831 -700.427 -578.981 -748.972C-402.436 -798.555 -75.5281 -676.412 185.399 -635.546C350.316 -609.716 508.968 -593.697 666.83 -553.853C836.982 -510.908 1005.68 -464.318 1126.16 -398.104C1263.08 -322.85 1360.41 -239.814 1383.23 -160.128C1409.11 -69.7111 1422.13 34.3443 1261.68 75.2507C1102.2 115.908 826.941 43.7922 607.283 37.697C380.775 31.4116 187.502 91.8714 -40.652 39.1125C-271.11 -14.1792 -424.504 -124.195 -508.239 -220.259C-583.253 -306.319 -457.574 -369.353 -468.614 -451.867Z" fill="#E2F7FA"/>
<path fill-rule="evenodd" clip-rule="evenodd" d="M-468.614 -451.867C-481.881 -551.019 -751.831 -700.427 -578.981 -748.972C-402.436 -798.555 -75.5281 -676.412 185.399 -635.546C350.316 -609.716 508.968 -593.697 666.83 -553.853C836.982 -510.908 1005.68 -464.318 1126.16 -398.104C1263.08 -322.85 1360.41 -239.814 1383.23 -160.128C1409.11 -69.7111 1422.13 34.3443 1261.68 75.2507C1102.2 115.908 826.941 43.7922 607.283 37.697C380.775 31.4116 187.502 91.8714 -40.652 39.1125C-271.11 -14.1792 -424.504 -124.195 -508.239 -220.259C-583.253 -306.319 -457.574 -369.353 -468.614 -451.867Z" fill="url(#paint0_linear)"/>
</g>
<defs>
<linearGradient id="paint0_linear" x1="1081.68" y1="526.813" x2="-197.625" y2="-388.698" gradientUnits="userSpaceOnUse">
<stop offset="0.168522" stop-color="#0075C2"/>
<stop offset="0.51271" stop-color="#5DAAD9"/>
<stop offset="0.918668" stop-color="white"/>
</linearGradient>
<clipPath id="clip0">
<rect width="924.444" height="520" fill="white"/>
</clipPath>
</defs>
</svg>
