<svg width="50" height="50" viewBox="0 0 50 50" fill="none" xmlns="http://www.w3.org/2000/svg">
<g id="buat nyoba doang" clip-path="url(#clip0)">
<path id="Ellipse 8" d="M50 25C50 38.8071 38.8071 50 25 50C11.1929 50 0 38.8071 0 25C0 11.1929 11.1929 0 25 0C38.8071 0 50 11.1929 50 25Z" fill="#263C92"/>
<g id="e" filter="url(#filter0_d)">
<path d="M33.352 25.8H22.48C22.72 30.024 24.364 32.136 27.412 32.136C28.228 32.136 29.152 31.944 30.184 31.56C31.24 31.176 32.008 30.636 32.488 29.94L32.992 30.3C32.464 31.188 31.564 31.92 30.292 32.496C29.02 33.072 27.748 33.36 26.476 33.36C25.228 33.36 24.1 33.24 23.092 33C22.084 32.736 21.1 32.304 20.14 31.704C19.18 31.104 18.424 30.204 17.872 29.004C17.344 27.804 17.08 26.352 17.08 24.648C17.08 21.744 17.884 19.596 19.492 18.204C21.1 16.788 23.044 16.08 25.324 16.08C27.628 16.08 29.536 16.848 31.048 18.384C32.584 19.92 33.352 22.392 33.352 25.8ZM22.444 25.08H28.312C28.312 22.872 28.072 20.94 27.592 19.284C27.136 17.628 26.392 16.8 25.36 16.8C24.328 16.8 23.584 17.604 23.128 19.212C22.672 20.796 22.444 22.62 22.444 24.684V25.08Z" fill="white"/>
</g>
<circle id="Ellipse 9" cx="25" cy="25" r="20.75" stroke="white" stroke-width="0.5"/>
</g>
<defs>
<filter id="filter0_d" x="16.0801" y="16.08" width="22.272" height="24.28" filterUnits="userSpaceOnUse" color-interpolation-filters="sRGB">
<feFlood flood-opacity="0" result="BackgroundImageFix"/>
<feColorMatrix in="SourceAlpha" type="matrix" values="0 0 0 0 0 0 0 0 0 0 0 0 0 0 0 0 0 0 127 0"/>
<feOffset dx="2" dy="4"/>
<feGaussianBlur stdDeviation="1.5"/>
<feColorMatrix type="matrix" values="0 0 0 0 0 0 0 0 0 0 0 0 0 0 0 0 0 0 0.68 0"/>
<feBlend mode="normal" in2="BackgroundImageFix" result="effect1_dropShadow"/>
<feBlend mode="normal" in="SourceGraphic" in2="effect1_dropShadow" result="shape"/>
</filter>
<clipPath id="clip0">
<rect width="50" height="50" fill="white"/>
</clipPath>
</defs>
</svg>
