<svg width="925" height="520" viewBox="0 0 925 520" fill="none" xmlns="http://www.w3.org/2000/svg">
<g clip-path="url(#clip0)">
<path d="M924.444 0H0V520H924.444V0Z" fill="white"/>
<path fill-rule="evenodd" clip-rule="evenodd" d="M-435.614 -434.867C-448.881 -534.019 -718.831 -683.427 -545.981 -731.972C-369.436 -781.555 -42.5279 -659.412 218.399 -618.546C383.316 -592.716 541.968 -576.697 699.83 -536.853C869.982 -493.908 1038.68 -447.318 1159.16 -381.104C1296.08 -305.85 1393.41 -222.814 1416.23 -143.128C1442.11 -52.7111 1455.13 51.3443 1294.68 92.2507C1135.2 132.908 859.941 60.7922 640.284 54.697C413.775 48.4116 220.502 108.871 -7.65179 56.1125C-238.11 2.82084 -391.504 -107.195 -475.239 -203.259C-550.253 -289.319 -424.574 -352.353 -435.614 -434.867Z" fill="#E2F7FA"/>
<path fill-rule="evenodd" clip-rule="evenodd" d="M-435.614 -434.867C-448.881 -534.019 -718.831 -683.427 -545.981 -731.972C-369.436 -781.555 -42.5279 -659.412 218.399 -618.546C383.316 -592.716 541.968 -576.697 699.83 -536.853C869.982 -493.908 1038.68 -447.318 1159.16 -381.104C1296.08 -305.85 1393.41 -222.814 1416.23 -143.128C1442.11 -52.7111 1455.13 51.3443 1294.68 92.2507C1135.2 132.908 859.941 60.7922 640.284 54.697C413.775 48.4116 220.502 108.871 -7.65179 56.1125C-238.11 2.82084 -391.504 -107.195 -475.239 -203.259C-550.253 -289.319 -424.574 -352.353 -435.614 -434.867Z" fill="url(#paint0_linear)"/>
<path fill-rule="evenodd" clip-rule="evenodd" d="M1563.61 849.951C1580.7 942.967 1853.57 1076.46 1684.63 1126.79C1512.09 1178.19 1184 1071.89 924.411 1040.36C760.336 1020.44 602.849 1009.58 445.187 976.274C275.252 940.371 106.606 900.997 -15.1541 841.858C-153.539 774.644 -253.087 699.046 -278.837 624.615C-308.054 540.162 -325.096 442.521 -168.113 399.721C-12.0862 357.181 262.933 417.75 480.333 417.632C704.513 417.509 893.16 355.421 1120.83 399.018C1350.8 443.055 1506.86 542.564 1593.49 630.793C1671.1 709.833 1549.38 772.544 1563.61 849.951Z" fill="#E2F7FA"/>
<path fill-rule="evenodd" clip-rule="evenodd" d="M1563.61 849.951C1580.7 942.967 1853.57 1076.46 1684.63 1126.79C1512.09 1178.19 1184 1071.89 924.411 1040.36C760.336 1020.44 602.849 1009.58 445.187 976.274C275.252 940.371 106.606 900.997 -15.1541 841.858C-153.539 774.644 -253.087 699.046 -278.837 624.615C-308.054 540.162 -325.096 442.521 -168.113 399.721C-12.0862 357.181 262.933 417.75 480.333 417.632C704.513 417.509 893.16 355.421 1120.83 399.018C1350.8 443.055 1506.86 542.564 1593.49 630.793C1671.1 709.833 1549.38 772.544 1563.61 849.951Z" fill="url(#paint1_linear)"/>
</g>
<defs>
<linearGradient id="paint0_linear" x1="1114.68" y1="543.813" x2="-164.625" y2="-371.698" gradientUnits="userSpaceOnUse">
<stop offset="0.168522" stop-color="#0075C2"/>
<stop offset="0.51271" stop-color="#5DAAD9"/>
<stop offset="0.918668" stop-color="white"/>
</linearGradient>
<linearGradient id="paint1_linear" x1="-8.27359" y1="-30.3087" x2="1257.55" y2="848.97" gradientUnits="userSpaceOnUse">
<stop offset="0.168522" stop-color="#0075C2"/>
<stop offset="0.51271" stop-color="#5DAAD9"/>
<stop offset="1" stop-color="white"/>
</linearGradient>
<clipPath id="clip0">
<rect width="924.444" height="520" fill="white"/>
</clipPath>
</defs>
</svg>
