<svg width="118" height="18" viewBox="0 0 118 18" fill="none" xmlns="http://www.w3.org/2000/svg">
<path d="M0.992 0.199999H4.88V17H0.992V0.199999ZM16.139 0.199999C17.627 0.199999 18.915 0.447999 20.003 0.943999C21.107 1.44 21.955 2.144 22.547 3.056C23.139 3.968 23.435 5.048 23.435 6.296C23.435 7.528 23.139 8.608 22.547 9.536C21.955 10.448 21.107 11.152 20.003 11.648C18.915 12.128 17.627 12.368 16.139 12.368H12.755V17H8.867V0.199999H16.139ZM15.923 9.2C17.091 9.2 17.979 8.952 18.587 8.456C19.195 7.944 19.499 7.224 19.499 6.296C19.499 5.352 19.195 4.632 18.587 4.136C17.979 3.624 17.091 3.368 15.923 3.368H12.755V9.2H15.923ZM38.5468 8.264C39.5068 8.568 40.2588 9.08 40.8028 9.8C41.3468 10.504 41.6188 11.376 41.6188 12.416C41.6188 13.888 41.0428 15.024 39.8908 15.824C38.7548 16.608 37.0908 17 34.8988 17H26.2108V0.199999H34.4188C36.4668 0.199999 38.0348 0.591999 39.1228 1.376C40.2268 2.16 40.7788 3.224 40.7788 4.568C40.7788 5.384 40.5788 6.112 40.1788 6.752C39.7948 7.392 39.2508 7.896 38.5468 8.264ZM30.0748 3.128V7.088H33.9388C34.8988 7.088 35.6268 6.92 36.1228 6.584C36.6188 6.248 36.8668 5.752 36.8668 5.096C36.8668 4.44 36.6188 3.952 36.1228 3.632C35.6268 3.296 34.8988 3.128 33.9388 3.128H30.0748ZM34.6108 14.072C35.6348 14.072 36.4028 13.904 36.9148 13.568C37.4428 13.232 37.7068 12.712 37.7068 12.008C37.7068 10.616 36.6748 9.92 34.6108 9.92H30.0748V14.072H34.6108Z" fill="#263C92"/>
<path d="M63.4676 15.464V17H51.5876V0.199999H63.1076V1.736H53.3636V7.712H62.0516V9.224H53.3636V15.464H63.4676ZM77.6324 4.376L72.0164 17H70.2644L64.6724 4.376H66.4484L71.1764 15.128L75.9524 4.376H77.6324ZM90.6727 11.216H80.1127C80.2087 12.528 80.7127 13.592 81.6247 14.408C82.5367 15.208 83.6887 15.608 85.0807 15.608C85.8647 15.608 86.5847 15.472 87.2407 15.2C87.8967 14.912 88.4647 14.496 88.9447 13.952L89.9047 15.056C89.3447 15.728 88.6407 16.24 87.7927 16.592C86.9607 16.944 86.0407 17.12 85.0327 17.12C83.7367 17.12 82.5847 16.848 81.5767 16.304C80.5847 15.744 79.8087 14.976 79.2487 14C78.6887 13.024 78.4087 11.92 78.4087 10.688C78.4087 9.456 78.6727 8.352 79.2007 7.376C79.7447 6.4 80.4807 5.64 81.4087 5.096C82.3527 4.552 83.4087 4.28 84.5767 4.28C85.7447 4.28 86.7927 4.552 87.7207 5.096C88.6487 5.64 89.3767 6.4 89.9047 7.376C90.4327 8.336 90.6967 9.44 90.6967 10.688L90.6727 11.216ZM84.5767 5.744C83.3607 5.744 82.3367 6.136 81.5047 6.92C80.6887 7.688 80.2247 8.696 80.1127 9.944H89.0647C88.9527 8.696 88.4807 7.688 87.6487 6.92C86.8327 6.136 85.8087 5.744 84.5767 5.744ZM100.597 4.28C102.181 4.28 103.437 4.744 104.365 5.672C105.309 6.584 105.781 7.92 105.781 9.68V17H104.077V9.848C104.077 8.536 103.749 7.536 103.093 6.848C102.437 6.16 101.501 5.816 100.285 5.816C98.9251 5.816 97.8451 6.224 97.0451 7.04C96.2611 7.84 95.8691 8.952 95.8691 10.376V17H94.1651V4.376H95.7971V6.704C96.2611 5.936 96.9011 5.344 97.7171 4.928C98.5491 4.496 99.5091 4.28 100.597 4.28ZM117.055 16.232C116.735 16.52 116.335 16.744 115.855 16.904C115.391 17.048 114.903 17.12 114.391 17.12C113.207 17.12 112.295 16.8 111.655 16.16C111.015 15.52 110.695 14.616 110.695 13.448V5.816H108.439V4.376H110.695V1.616H112.399V4.376H116.239V5.816H112.399V13.352C112.399 14.104 112.583 14.68 112.951 15.08C113.335 15.464 113.879 15.656 114.583 15.656C114.935 15.656 115.271 15.6 115.591 15.488C115.927 15.376 116.215 15.216 116.455 15.008L117.055 16.232Z" fill="white"/>
</svg>
