<svg id="visual" viewBox="0 0 1366 768" width="1366" height="768" xmlns="http://www.w3.org/2000/svg" xmlns:xlink="http://www.w3.org/1999/xlink" version="1.1"><rect x="0" y="0" width="1366" height="768" fill="#ffffff"></rect><path d="M0 46L32.5 54C65 62 130 78 195 93.8C260 109.7 325 125.3 390 127.5C455 129.7 520 118.3 585.2 105.2C650.3 92 715.7 77 780.8 76.5C846 76 911 90 976 109.7C1041 129.3 1106 154.7 1171 167.3C1236 180 1301 180 1333.5 180L1366 180L1366 0L1333.5 0C1301 0 1236 0 1171 0C1106 0 1041 0 976 0C911 0 846 0 780.8 0C715.7 0 650.3 0 585.2 0C520 0 455 0 390 0C325 0 260 0 195 0C130 0 65 0 32.5 0L0 0Z" fill="#0175C2" stroke-linecap="round" stroke-linejoin="miter"></path></svg>