<svg width="40" height="40" viewBox="0 0 40 40" fill="none" xmlns="http://www.w3.org/2000/svg">
<g id="buat nyoba doang">
<path id="Ellipse 8" d="M40 20C40 31.0457 31.0457 40 20 40C8.95431 40 0 31.0457 0 20C0 8.95431 8.95431 0 20 0C31.0457 0 40 8.95431 40 20Z" fill="#263C92"/>
<g id="e" filter="url(#filter0_d)">
<path d="M25.568 20.2H18.32C18.48 23.016 19.576 24.424 21.608 24.424C22.152 24.424 22.768 24.296 23.456 24.04C24.16 23.784 24.672 23.424 24.992 22.96L25.328 23.2C24.976 23.792 24.376 24.28 23.528 24.664C22.68 25.048 21.832 25.24 20.984 25.24C20.152 25.24 19.4 25.16 18.728 25C18.056 24.824 17.4 24.536 16.76 24.136C16.12 23.736 15.616 23.136 15.248 22.336C14.896 21.536 14.72 20.568 14.72 19.432C14.72 17.496 15.256 16.064 16.328 15.136C17.4 14.192 18.696 13.72 20.216 13.72C21.752 13.72 23.024 14.232 24.032 15.256C25.056 16.28 25.568 17.928 25.568 20.2ZM18.296 19.72H22.208C22.208 18.248 22.048 16.96 21.728 15.856C21.424 14.752 20.928 14.2 20.24 14.2C19.552 14.2 19.056 14.736 18.752 15.808C18.448 16.864 18.296 18.08 18.296 19.456V19.72Z" fill="white"/>
</g>
<circle id="Ellipse 9" cx="20" cy="20" r="17.75" stroke="white" stroke-width="0.5"/>
</g>
<defs>
<filter id="filter0_d" x="13.7202" y="13.72" width="16.848" height="18.52" filterUnits="userSpaceOnUse" color-interpolation-filters="sRGB">
<feFlood flood-opacity="0" result="BackgroundImageFix"/>
<feColorMatrix in="SourceAlpha" type="matrix" values="0 0 0 0 0 0 0 0 0 0 0 0 0 0 0 0 0 0 127 0"/>
<feOffset dx="2" dy="4"/>
<feGaussianBlur stdDeviation="1.5"/>
<feColorMatrix type="matrix" values="0 0 0 0 0 0 0 0 0 0 0 0 0 0 0 0 0 0 0.68 0"/>
<feBlend mode="normal" in2="BackgroundImageFix" result="effect1_dropShadow"/>
<feBlend mode="normal" in="SourceGraphic" in2="effect1_dropShadow" result="shape"/>
</filter>
</defs>
</svg>
